<svg style="display: none;" aria-hidden="true" xmlns="http://www.w3.org/2000/svg" xmlns:xlink="http://www.w3.org/1999/xlink"><symbol fill="#fff" viewBox="0 0 24 24" id="svg-facebook"><path clip-rule="evenodd" d="M4 1.5C2.61929 1.5 1.5 2.61929 1.5 4V20C1.5 21.3807 2.61929 22.5 4 22.5H12C12.2761 22.5 12.5 22.2761 12.5 22V14.5C12.5 14.2239 12.2761 14 12 14H10V11.5H12C12.2761 11.5 12.5 11.2761 12.5 11V8C12.5 6.34315 13.8431 5 15.5 5H18.5V7.5H17.5C16.3954 7.5 15.5 8.39543 15.5 9.5V11C15.5 11.2761 15.7239 11.5 16 11.5H18.3371L17.6228 14H16C15.7239 14 15.5 14.2239 15.5 14.5V22C15.5 22.2761 15.7239 22.5 16 22.5H20C21.3807 22.5 22.5 21.3807 22.5 20V4C22.5 2.61929 21.3807 1.5 20 1.5H4Z" fill-rule="evenodd"/></symbol><symbol fill="#fff" viewBox="0 0 512 512" id="svg-google"><path d="M428.7,69.3c-24.2,24.2-48.3,48.2-71.9,71.8c-10.2-6-20.1-12.9-30.9-17.9c-41.1-19-82.6-18.9-123.6-0.1 c-38.4,17.7-64.9,47-77.8,87.2c-16.2,50.5-7.8,97.6,25.2,139.3c23.9,30.3,55.7,47.9,94,53.3c28.6,4,56.6,0.9,83.3-9.9 c37.6-15.3,61.4-42.7,70.7-82.5c0.1-0.6,0.1-1.3,0.2-2.5c-44.4,0-88.6,0-133.1,0c0-32.3,0-64,0-96.3c2.2-0.1,4.3-0.3,6.4-0.3 c73.3,0,146.7,0.1,220-0.2c5.7,0,6.9,2.5,7.7,7c4.2,22.1,5.1,44.3,2.9,66.7c-2.6,25.8-7.8,50.9-17.4,75.1 c-19,48.1-50.2,85.9-94.6,112.5C337.3,504,280.3,513,220.5,502.8c-57.6-9.9-105.9-37.6-144.5-81.5c-24.8-28.2-42-60.6-52.1-96.8 s-11.8-73-5.7-109.9C25.6,170.2,44,130.5,73.1,96c34.1-40.4,76.7-67.8,127.9-80.7c62.7-15.8,123.2-9.2,180.6,21.5 C398.6,45.9,414.3,56.8,428.7,69.3z"/></symbol><symbol viewBox="0 0 103 23" fill="none" id="svg-logo"><path fill-rule="evenodd" clip-rule="evenodd" d="M5.13166 13.1602L4.13638 15.0336V21.3273H0.916382V0.83637H4.13638V9.76455L8.35166 0.83637H11.5717L7.09293 9.96946L11.5717 21.3273H8.26384L5.13166 13.1602ZM16.1173 16.6144C16.1173 17.356 16.2685 17.878 16.571 18.1805C16.8735 18.4829 17.2784 18.6342 17.7858 18.6342C18.2932 18.6342 18.6982 18.4829 19.0007 18.1805C19.3031 17.878 19.4544 17.356 19.4544 16.6144V5.54928C19.4544 4.8077 19.3031 4.28567 19.0007 3.98319C18.6982 3.6807 18.2932 3.52946 17.7858 3.52946C17.2784 3.52946 16.8735 3.6807 16.571 3.98319C16.2685 4.28567 16.1173 4.8077 16.1173 5.54928V16.6144ZM12.8973 5.75419C12.8973 4.09539 13.3169 2.82204 14.156 1.9341C14.9952 1.04615 16.2051 0.602188 17.7858 0.602188C19.3666 0.602188 20.5765 1.04615 21.4157 1.9341C22.2548 2.82204 22.6744 4.09539 22.6744 5.75419V16.4095C22.6744 18.0683 22.2548 19.3416 21.4157 20.2296C20.5765 21.1175 19.3666 21.5615 17.7858 21.5615C16.2051 21.5615 14.9952 21.1175 14.156 20.2296C13.3169 19.3416 12.8973 18.0683 12.8973 16.4095V5.75419ZM27.9518 6.48601V21.3273H25.0538V0.83637H29.0935L32.4013 13.1016V0.83637H35.27V21.3273H31.9622L27.9518 6.48601ZM37.5031 5.75419C37.5031 4.09539 37.8983 2.82204 38.6887 1.9341C39.479 1.04615 40.6646 0.602188 42.2453 0.602188C43.826 0.602188 45.0116 1.04615 45.8019 1.9341C46.5923 2.82204 46.9875 4.09539 46.9875 5.75419V6.39819H43.9431V5.54928C43.9431 4.8077 43.8016 4.28567 43.5187 3.98319C43.2357 3.6807 42.8405 3.52946 42.3331 3.52946C41.8257 3.52946 41.4305 3.6807 41.1476 3.98319C40.8646 4.28567 40.7231 4.8077 40.7231 5.54928C40.7231 6.25183 40.8792 6.87143 41.1915 7.4081C41.5037 7.94477 41.894 8.45216 42.3624 8.93028C42.8307 9.4084 43.3333 9.88652 43.8699 10.3646C44.4066 10.8428 44.9091 11.3648 45.3775 11.9307C45.8458 12.4967 46.2361 13.1407 46.5484 13.8627C46.8606 14.5848 47.0167 15.4337 47.0167 16.4095C47.0167 18.0683 46.6118 19.3416 45.8019 20.2296C44.992 21.1175 43.7968 21.5615 42.216 21.5615C40.6353 21.5615 39.44 21.1175 38.6301 20.2296C37.8202 19.3416 37.4153 18.0683 37.4153 16.4095V15.1507H40.4597V16.6144C40.4597 17.356 40.6109 17.8731 40.9134 18.1658C41.2159 18.4586 41.6208 18.6049 42.1282 18.6049C42.6356 18.6049 43.0405 18.4586 43.343 18.1658C43.6455 17.8731 43.7967 17.356 43.7967 16.6144C43.7967 15.9118 43.6406 15.2922 43.3284 14.7556C43.0161 14.2189 42.6258 13.7115 42.1575 13.2334C41.6891 12.7552 41.1866 12.2771 40.6499 11.799C40.1133 11.3209 39.6107 10.7989 39.1424 10.2329C38.674 9.66697 38.2837 9.02298 37.9715 8.30092C37.6592 7.57885 37.5031 6.72995 37.5031 5.75419ZM48.2546 0.83637H58.2073V3.76364H54.8409V21.3273H51.6209V3.76364H48.2546V0.83637ZM66.6755 21.3273C66.6364 21.1907 66.5974 21.0638 66.5584 20.9467C66.5193 20.8296 66.4852 20.6833 66.4559 20.5076C66.4266 20.332 66.4071 20.1076 66.3974 19.8344C66.3876 19.5612 66.3827 19.2196 66.3827 18.8098V15.5898C66.3827 14.6336 66.2169 13.9603 65.8851 13.57C65.5533 13.1797 65.0167 12.9846 64.2751 12.9846H63.1627V21.3273H59.9427V0.83637H64.802C66.4803 0.83637 67.6951 1.22667 68.4465 2.00728C69.1978 2.78789 69.5735 3.96854 69.5735 5.54928V7.15928C69.5735 9.26693 68.8709 10.6525 67.4658 11.316C68.2855 11.6478 68.8465 12.1893 69.149 12.9406C69.4515 13.692 69.6027 14.6043 69.6027 15.6776V18.8391C69.6027 19.3465 69.6222 19.7905 69.6613 20.171C69.7003 20.5516 69.7979 20.937 69.954 21.3273H66.6755ZM63.1627 3.76364V10.0573H64.4215C65.0264 10.0573 65.4997 9.90116 65.8412 9.58892C66.1827 9.27667 66.3535 8.71074 66.3535 7.8911V5.87128C66.3535 5.1297 66.2217 4.59304 65.9583 4.26128C65.6948 3.92952 65.2801 3.76364 64.7142 3.76364H63.1627ZM75.1144 0.83637V16.6436C75.1144 17.3852 75.2656 17.9024 75.5681 18.1951C75.8706 18.4878 76.2755 18.6342 76.7829 18.6342C77.2903 18.6342 77.6953 18.4878 77.9977 18.1951C78.3002 17.9024 78.4515 17.3852 78.4515 16.6436V0.83637H81.4958V16.4387C81.4958 18.0975 81.0909 19.3709 80.281 20.2588C79.4711 21.1468 78.2758 21.5907 76.6951 21.5907C75.1144 21.5907 73.9191 21.1468 73.1092 20.2588C72.2993 19.3709 71.8944 18.0975 71.8944 16.4387V0.83637H75.1144ZM92.8202 0.83637H102.773V3.76364H99.4066V21.3273H96.1866V3.76364H92.8202V0.83637Z" fill="#fff"/><path fill-rule="evenodd" clip-rule="evenodd" d="M83.0254 11.4851L91.389 1.03058V21.9397L83.0254 11.4851Z" fill="#00A4E5"/></symbol><symbol viewBox="0 0 245 55" fill="none" id="svg-logoBlack"><path fill-rule="evenodd" clip-rule="evenodd" d="M10.8798 31.47L8.4998 35.95V51H0.799805V2H8.4998V23.35L18.5798 2H26.2798L15.5698 23.84L26.2798 51H18.3698L10.8798 31.47ZM37.1498 39.73C37.1498 41.5033 37.5115 42.7517 38.2348 43.475C38.9581 44.1983 39.9265 44.56 41.1398 44.56C42.3531 44.56 43.3215 44.1983 44.0448 43.475C44.7681 42.7517 45.1298 41.5033 45.1298 39.73V13.27C45.1298 11.4967 44.7681 10.2483 44.0448 9.525C43.3215 8.80167 42.3531 8.44 41.1398 8.44C39.9265 8.44 38.9581 8.80167 38.2348 9.525C37.5115 10.2483 37.1498 11.4967 37.1498 13.27V39.73ZM29.4498 13.76C29.4498 9.79332 30.4531 6.74835 32.4598 4.625C34.4665 2.50166 37.3598 1.44 41.1398 1.44C44.9198 1.44 47.8131 2.50166 49.8198 4.625C51.8265 6.74835 52.8298 9.79332 52.8298 13.76V39.24C52.8298 43.2067 51.8265 46.2517 49.8198 48.375C47.8131 50.4983 44.9198 51.56 41.1398 51.56C37.3598 51.56 34.4665 50.4983 32.4598 48.375C30.4531 46.2517 29.4498 43.2067 29.4498 39.24V13.76ZM65.4498 15.51V51H58.5198V2H68.1798L76.0898 31.33V2H82.9498V51H75.0398L65.4498 15.51ZM88.2898 13.76C88.2898 9.79332 89.2348 6.74835 91.1248 4.625C93.0148 2.50166 95.8498 1.44 99.6298 1.44C103.41 1.44 106.245 2.50166 108.135 4.625C110.025 6.74835 110.97 9.79332 110.97 13.76V15.3H103.69V13.27C103.69 11.4967 103.351 10.2483 102.675 9.525C101.998 8.80167 101.053 8.44 99.8398 8.44C98.6265 8.44 97.6815 8.80167 97.0048 9.525C96.3281 10.2483 95.9898 11.4967 95.9898 13.27C95.9898 14.95 96.3631 16.4317 97.1098 17.715C97.8565 18.9983 98.7898 20.2117 99.9098 21.355C101.03 22.4983 102.231 23.6417 103.515 24.785C104.798 25.9283 106 27.1767 107.12 28.53C108.24 29.8833 109.173 31.4233 109.92 33.15C110.666 34.8767 111.04 36.9067 111.04 39.24C111.04 43.2067 110.071 46.2517 108.135 48.375C106.198 50.4983 103.34 51.56 99.5598 51.56C95.7798 51.56 92.9215 50.4983 90.9848 48.375C89.0481 46.2517 88.0798 43.2067 88.0798 39.24V36.23H95.3598V39.73C95.3598 41.5033 95.7215 42.74 96.4448 43.44C97.1681 44.14 98.1365 44.49 99.3498 44.49C100.563 44.49 101.531 44.14 102.255 43.44C102.978 42.74 103.34 41.5033 103.34 39.73C103.34 38.05 102.966 36.5683 102.22 35.285C101.473 34.0017 100.54 32.7883 99.4198 31.645C98.2998 30.5017 97.0981 29.3583 95.8148 28.215C94.5315 27.0717 93.3298 25.8233 92.2098 24.47C91.0898 23.1167 90.1565 21.5767 89.4098 19.85C88.6631 18.1233 88.2898 16.0933 88.2898 13.76ZM114 2H137.8V9H129.75V51H122.05V9H114V2ZM158.05 51C157.956 50.6733 157.863 50.37 157.77 50.09C157.676 49.81 157.595 49.46 157.525 49.04C157.455 48.62 157.408 48.0833 157.385 47.43C157.361 46.7767 157.35 45.96 157.35 44.98V37.28C157.35 34.9933 156.953 33.3833 156.16 32.45C155.366 31.5167 154.083 31.05 152.31 31.05H149.65V51H141.95V2H153.57C157.583 2 160.488 2.93333 162.285 4.8C164.081 6.66668 164.98 9.48998 164.98 13.27V17.12C164.98 22.16 163.3 25.4733 159.94 27.06C161.9 27.8533 163.241 29.1483 163.965 30.945C164.688 32.7417 165.05 34.9233 165.05 37.49V45.05C165.05 46.2633 165.096 47.325 165.19 48.235C165.283 49.145 165.516 50.0667 165.89 51H158.05ZM149.65 9V24.05H152.66C154.106 24.05 155.238 23.6767 156.055 22.93C156.871 22.1833 157.28 20.83 157.28 18.87V14.04C157.28 12.2667 156.965 10.9833 156.335 10.19C155.705 9.39667 154.713 9 153.36 9H149.65ZM178.23 2V39.8C178.23 41.5733 178.591 42.81 179.315 43.51C180.038 44.21 181.006 44.56 182.22 44.56C183.433 44.56 184.401 44.21 185.125 43.51C185.848 42.81 186.21 41.5733 186.21 39.8V2H193.49V39.31C193.49 43.2767 192.521 46.3217 190.585 48.445C188.648 50.5683 185.79 51.63 182.01 51.63C178.23 51.63 175.371 50.5683 173.435 48.445C171.498 46.3217 170.53 43.2767 170.53 39.31V2H178.23ZM220.57 2H244.37V9H236.32V51H228.62V9H220.57V2Z" fill="#171819"/><path fill-rule="evenodd" clip-rule="evenodd" d="M197.147 27.4644L217.147 2.46442V52.4644L197.147 27.4644Z" fill="#00A4E5"/></symbol><symbol fill="#fff" viewBox="0 0 512 512" id="svg-twitter"><path d="M4,440.5c55.6,5,105.7-9,151.3-43.2c-47.7-4.2-79.6-28-97.4-72.6c15.6,1.9,30.2,2.4,45.7-1.8 c-51.4-16-78.8-49.6-82.5-103.8c15.4,7.2,29.9,12.4,47,12.6c-30.5-22.9-46.1-52.6-45.5-90c0.3-17.2,4.9-33.4,14-48.7 C93.1,159.1,164,195.7,251.3,201.8c-0.5-3.8-0.8-6.8-1.2-9.9c-7.2-55.4,28.8-105.8,83.8-116.3c34.5-6.6,65,2.5,90.8,26.3 c4,3.6,7.4,4.4,12.4,3.1c20.1-5.1,39.2-12.5,57.7-22.5c-7.1,23.4-21.7,41-41.5,55.8c4.5-0.8,9.1-1.4,13.6-2.3 c4.7-1,9.4-2.1,14.1-3.4c4.5-1.2,8.9-2.6,13.3-4.1c4.5-1.5,9-3.2,14.3-4.1c-2.6,3.6-5.1,7.4-7.9,10.9c-11.6,14.7-25,27.6-39.7,39.1 c-1.5,1.2-2.8,3.8-2.7,5.6c0.8,35.5-4.2,70.1-15.7,103.7c-22.6,66.2-62,119.8-121.1,158.1c-29.2,18.9-61.1,31.3-95.2,38.5 c-33.8,7.1-67.8,8.4-101.9,4.4c-34.2-4-66.7-14.1-97.3-29.9c-8.1-4.1-15.9-8.7-23.8-13.1C3.6,441.3,3.8,440.9,4,440.5z"/></symbol></svg>